<svg width="20" height="20" viewBox="0 0 20 20" fill="none" xmlns="http://www.w3.org/2000/svg">
<path d="M10 0C8.02219 0 6.08879 0.58649 4.4443 1.6853C2.79981 2.78412 1.51809 4.3459 0.761209 6.17316C0.00433268 8.00043 -0.1937 10.0111 0.192152 11.9509C0.578004 13.8907 1.53041 15.6725 2.92894 17.0711C4.32746 18.4696 6.10929 19.422 8.0491 19.8078C9.98891 20.1937 11.9996 19.9957 13.8268 19.2388C15.6541 18.4819 17.2159 17.2002 18.3147 15.5557C19.4135 13.9112 20 11.9778 20 10C19.9971 7.34873 18.9426 4.80688 17.0679 2.93215C15.1931 1.05741 12.6513 0.0029116 10 0ZM10.4 19.191V12H13.2C13.3061 12 13.4078 11.9579 13.4828 11.8828C13.5579 11.8078 13.6 11.7061 13.6 11.6C13.6 11.4939 13.5579 11.3922 13.4828 11.3172C13.4078 11.2421 13.3061 11.2 13.2 11.2H10.4V8.4C10.4 7.86957 10.6107 7.36086 10.9858 6.98578C11.3609 6.61071 11.8696 6.4 12.4 6.4H14C14.1061 6.4 14.2078 6.35786 14.2828 6.28284C14.3579 6.20783 14.4 6.10609 14.4 6C14.4 5.89391 14.3579 5.79217 14.2828 5.71716C14.2078 5.64214 14.1061 5.6 14 5.6H12.4C11.6574 5.6 10.9452 5.895 10.4201 6.4201C9.895 6.9452 9.6 7.65739 9.6 8.4V11.2H6.8C6.69392 11.2 6.59217 11.2421 6.51716 11.3172C6.44215 11.3922 6.4 11.4939 6.4 11.6C6.4 11.7061 6.44215 11.8078 6.51716 11.8828C6.59217 11.9579 6.69392 12 6.8 12H9.6V19.191C7.19693 19.0864 4.93038 18.0449 3.28592 16.2895C1.64146 14.5341 0.749877 12.2044 0.802179 9.79965C0.854482 7.39487 1.84651 5.10621 3.56574 3.42397C5.28497 1.74173 7.59466 0.7997 10 0.7997C12.4053 0.7997 14.715 1.74173 16.4343 3.42397C18.1535 5.10621 19.1455 7.39487 19.1978 9.79965C19.2501 12.2044 18.3585 14.5341 16.7141 16.2895C15.0696 18.0449 12.8031 19.0864 10.4 19.191Z" fill="white"/>
</svg>
