<svg width="20" height="20" viewBox="0 0 20 20" fill="none" xmlns="http://www.w3.org/2000/svg">
<path d="M13.2143 11.7781C12.7952 11.3279 12.2934 10.9625 11.7362 10.7019C12.5285 10.2137 13.2158 9.57255 13.7578 8.81598C14.2998 8.05942 14.6859 7.20252 14.8933 6.29524C14.9093 6.23349 14.9127 6.16915 14.9034 6.10606C14.894 6.04296 14.872 5.98239 14.8388 5.92794C14.8056 5.87349 14.7618 5.82627 14.7099 5.78908C14.6581 5.7519 14.5994 5.7255 14.5371 5.71146C14.4749 5.69742 14.4105 5.69602 14.3477 5.70735C14.285 5.71868 14.2251 5.74251 14.1717 5.77742C14.1183 5.81233 14.0725 5.8576 14.037 5.91056C14.0014 5.96352 13.9769 6.02308 13.9648 6.08571C13.7533 7.01469 13.3257 7.88071 12.7167 8.61344C12.1078 9.34618 11.3346 9.92498 10.46 10.3029C10.3562 10.2857 10.2505 10.281 10.1467 10.2705V6.19238C10.144 6.1505 10.1357 6.10917 10.1219 6.06952C10.119 6.04897 10.1149 6.02861 10.1095 6.00857C10.0874 5.9583 10.0568 5.91222 10.019 5.87238C10.0143 5.86762 10.0124 5.86095 10.0086 5.85714C9.97447 5.82569 9.93597 5.79939 9.89429 5.77905C9.88095 5.77143 9.87048 5.76 9.85714 5.75429C9.82522 5.74428 9.79234 5.73758 9.75905 5.73429C9.73112 5.72552 9.70242 5.71946 9.67333 5.71619L9.04952 5.71429H9.04762C8.92133 5.71403 8.8001 5.76396 8.71062 5.85309C8.62114 5.94221 8.57073 6.06323 8.57048 6.18952C8.57022 6.31582 8.62015 6.43704 8.70928 6.52652C8.7984 6.616 8.91942 6.66641 9.04571 6.66667H9.19048V11.8667C9.19048 11.8733 9.19429 11.879 9.19429 11.8857V12.8362C7.16673 11.1175 5.8145 8.73528 5.3781 6.11333C5.35484 5.98997 5.28472 5.88041 5.18245 5.80761C5.08018 5.73481 4.9537 5.70444 4.82952 5.72286C4.70501 5.74384 4.59392 5.81341 4.52069 5.91629C4.44747 6.01916 4.4181 6.14691 4.43905 6.27143C4.97517 9.4649 6.75623 12.3153 9.39143 14.1971C9.40095 14.2038 9.41238 14.201 9.42095 14.2067C9.49458 14.2571 9.58124 14.2853 9.67048 14.2876C9.74056 14.2867 9.80956 14.2701 9.87238 14.239L9.88762 14.2352C9.89714 14.2305 9.90286 14.2181 9.91238 14.2124C9.98437 14.1698 10.0436 14.1086 10.0838 14.0352C10.1234 13.9672 10.1451 13.8902 10.1467 13.8114V11.2019C11.0551 11.3156 11.8938 11.7479 12.5133 12.4219L14.0819 14.1333C14.1673 14.2263 14.2861 14.2815 14.4122 14.2869C14.4746 14.2895 14.537 14.2799 14.5957 14.2584C14.6544 14.237 14.7083 14.2042 14.7543 14.1619C14.8003 14.1196 14.8376 14.0687 14.8639 14.012C14.8902 13.9554 14.9052 13.8941 14.9078 13.8316C14.9105 13.7692 14.9008 13.7068 14.8794 13.6481C14.8579 13.5894 14.8251 13.5355 14.7829 13.4895L13.2143 11.7781ZM12.9267 0H7.08381C1.45619 0 0 1.45429 0 7.07333V12.9171C0 18.5438 1.45429 20 7.07333 20H12.9171C18.5438 20 20 18.5457 20 12.9267V7.08381C20 1.45619 18.5457 0 12.9267 0ZM19.0476 12.9267C19.0476 18.0181 18.0162 19.0476 12.9171 19.0476H7.07333C1.98095 19.0476 0.952381 18.0162 0.952381 12.9171V7.07333C0.952381 1.98095 1.98381 0.952381 7.08381 0.952381H12.9267C18.0181 0.952381 19.0476 1.98381 19.0476 7.08381V12.9267Z" fill="white"/>
</svg>
