<svg width="25" height="20" viewBox="0 0 25 20" fill="none" xmlns="http://www.w3.org/2000/svg">
<path d="M15.99 8.46875L11.405 5.82875C11.1358 5.67377 10.8306 5.5923 10.5199 5.59253C10.2093 5.59276 9.90421 5.67467 9.63524 5.83005C9.36627 5.98543 9.14289 6.20882 8.98751 6.47779C8.83213 6.74677 8.75022 7.05187 8.75 7.3625V12.64C8.74625 13.2725 9.08375 13.8575 9.6325 14.17C9.90155 14.3272 10.2074 14.4102 10.519 14.4106C10.8306 14.4111 11.1368 14.3289 11.4062 14.1725L15.99 11.5325C16.2593 11.3777 16.483 11.1546 16.6385 10.8858C16.7941 10.617 16.876 10.3118 16.876 10.0013C16.876 9.69065 16.7941 9.38555 16.6385 9.11671C16.483 8.84787 16.2593 8.6248 15.99 8.47M15.365 10.4475L10.7825 13.0887C10.7031 13.1353 10.6127 13.1599 10.5206 13.1599C10.4286 13.1599 10.3382 13.1353 10.2587 13.0887C10.1791 13.0437 10.113 12.978 10.0675 12.8986C10.022 12.8192 9.99867 12.729 10 12.6375V7.3625C9.99912 7.27141 10.0227 7.18174 10.0682 7.10283C10.1137 7.02391 10.1795 6.95862 10.2587 6.91375C10.3375 6.86584 10.4278 6.8405 10.52 6.8405C10.6122 6.8405 10.7025 6.86584 10.7812 6.91375L15.365 9.555C15.4441 9.59965 15.5098 9.66449 15.5556 9.7429C15.6014 9.8213 15.6255 9.91046 15.6255 10.0013C15.6255 10.092 15.6014 10.1812 15.5556 10.2596C15.5098 10.338 15.4441 10.4029 15.365 10.4475ZM21.25 0H3.75C2.75574 0.000992769 1.80249 0.396399 1.09945 1.09945C0.3964 1.80249 0.000992769 2.75574 0 3.75V16.25C0.000992769 17.2443 0.3964 18.1975 1.09945 18.9006C1.80249 19.6036 2.75574 19.999 3.75 20H21.25C22.2443 19.999 23.1975 19.6036 23.9006 18.9006C24.6036 18.1975 24.999 17.2443 25 16.25V3.75C24.999 2.75574 24.6036 1.80249 23.9006 1.09945C23.1975 0.396399 22.2443 0.000992769 21.25 0ZM23.75 16.25C23.749 16.9127 23.4853 17.548 23.0167 18.0167C22.548 18.4853 21.9127 18.749 21.25 18.75H3.75C3.08726 18.749 2.45195 18.4853 1.98333 18.0167C1.5147 17.548 1.25099 16.9127 1.25 16.25V3.75C1.25099 3.08726 1.5147 2.45195 1.98333 1.98333C2.45195 1.5147 3.08726 1.25099 3.75 1.25H21.25C21.9127 1.25099 22.548 1.5147 23.0167 1.98333C23.4853 2.45195 23.749 3.08726 23.75 3.75V16.25Z" fill="white"/>
</svg>
